<svg aria-hidden="true" style="position: absolute; width: 0; height: 0; overflow: hidden;" version="1.1" xmlns="http://www.w3.org/2000/svg" xmlns:xlink="http://www.w3.org/1999/xlink">
<defs>
<symbol id="Basket" width="38.563" height="38.059" viewBox="0 0 38.563 38.059">
<title>Basket</title>
<path fill="#fed136" style="fill: var(--color1, #fed136)" d="M3.386 32.017h25.644l1.069-18.522h-27.78zM2.901 7.708l0.003 0c-0.017-0-0.035-0-0.052-0-1.598 0-2.894 1.296-2.894 2.894s1.296 2.894 2.894 2.894c0.017 0 0.035-0 0.049-0l26.617-0c0.017 0 0.035 0 0.052 0 1.598 0 2.894-1.296 2.894-2.894s-1.296-2.894-2.894-2.894c-0.017 0-0.035 0-0.049 0h-26.622zM1.162 13.495h30.095v1.158h-30.095v-1.158zM16.212 19.279c0.64 0.001 1.158 0.52 1.158 1.16 0 0 0 0 0 0v0 6.945c0 0.009 0 0.020 0 0.031 0 0.639-0.518 1.158-1.158 1.158s-1.158-0.518-1.158-1.158c0-0.011 0-0.022 0-0.033l-0 0.002v-6.945c0-0 0-0.001 0-0.001 0-0.638 0.516-1.156 1.153-1.159h0zM23.157 19.279c0.64 0.001 1.158 0.52 1.158 1.16 0 0 0 0 0 0v0 6.945c0 0.639-0.518 1.158-1.158 1.158s-1.158-0.518-1.158-1.158v0-6.945c0 0 0 0 0 0 0-0.639 0.516-1.157 1.154-1.16h0zM9.267 19.279c0.64 0.001 1.158 0.52 1.158 1.16 0 0 0 0 0 0v0 6.945c0 0.009 0 0.020 0 0.031 0 0.639-0.518 1.158-1.158 1.158s-1.158-0.518-1.158-1.158c0-0.011 0-0.022 0-0.033l-0 0.002v-6.945c0-0 0-0.001 0-0.001 0-0.638 0.516-1.156 1.153-1.159h0zM19.396 0.303c0.332-0.195 0.731-0.31 1.158-0.31 0.852 0 1.597 0.461 1.999 1.147l0.006 0.011 3.473 6.014c0.195 0.332 0.31 0.731 0.31 1.157 0 1.279-1.036 2.315-2.315 2.315-0.852 0-1.597-0.461-1.999-1.147l-0.006-0.011-3.473-6.014c-0.195-0.332-0.311-0.732-0.311-1.159 0-0.851 0.459-1.595 1.144-1.998l0.011-0.006zM13.026 0.303l0.011 0.006c0.687 0.402 1.149 1.147 1.149 2.001 0 0.425-0.115 0.824-0.309 1.156l-3.478 6.025c-0.402 0.686-1.147 1.147-1.999 1.147-1.279 0-2.315-1.036-2.315-2.315 0-0.426 0.115-0.825 0.31-1.157l3.478-6.025c0.402-0.686 1.146-1.147 1.999-1.147 0.426 0 0.825 0.115 1.157 0.31z"></path>
</symbol>
<symbol id="locked" viewBox="0 0 24 32">
<title>locked</title>
<path fill="#fed136" style="fill: var(--color1, #fed136)" d="M11.988 0.007c-4.413 0-7.995 3.133-7.995 6.998v16.992c0 3.864 3.573 7.001 7.995 7.001s8.003-3.136 8.003-7.001v-16.993c0-3.865-3.582-6.997-8.003-6.997zM11.988 4.005c2.211 0 4.002 1.344 4.002 2.999v6.997c0 1.657-1.791 2.999-4.002 2.999s-3.993-1.342-3.993-2.999v-6.996c0-1.656 1.791-2.999 3.993-2.999zM2.999 15.001h17.986c1.656 0 2.999 1.343 2.999 2.999v0 10.991c0 0.003 0 0.006 0 0.009 0 1.656-1.343 2.999-2.999 2.999 0 0 0 0 0 0h-17.986c0 0 0 0 0 0-1.656 0-2.999-1.343-2.999-2.999 0-0.003 0-0.006 0-0.009v0-10.99c0-0 0-0.001 0-0.001 0-1.656 1.343-2.999 2.999-2.999v0zM11.988 20.004h-0c-1.102 0.001-1.995 0.894-1.996 1.997v4.996c0 1.105 0.896 2.001 2.001 2.001s2.001-0.896 2.001-2.001v-4.996c-0.002-1.103-0.897-1.996-2-1.996-0.002 0-0.004 0-0.005 0zM11.988 18.001c0.002 0 0.005 0 0.008 0 2.21 0 4.001 1.791 4.001 4.001s-1.791 4.001-4.001 4.001c-2.21 0-4.001-1.791-4.001-4.001 0-0.001 0-0.001 0-0.002v0c0-0 0-0.001 0-0.001 0-2.206 1.787-3.995 3.993-3.998h0z"></path>
</symbol>
<symbol id="menu" viewBox="0 0 32 32">
<title>menu</title>
<path d="M3.636 7.273h24.727c2.006 0 3.636-1.631 3.636-3.636s-1.631-3.636-3.636-3.636h-24.727c-2.006 0-3.636 1.631-3.636 3.636s1.631 3.636 3.636 3.636zM3.636 1.455h24.727c1.203 0 2.182 0.979 2.182 2.182s-0.979 2.182-2.182 2.182h-24.727c-1.203 0-2.182-0.979-2.182-2.182s0.979-2.182 2.182-2.182z"></path>
<path d="M28.364 12.364h-24.727c-2.006 0-3.636 1.631-3.636 3.636s1.631 3.636 3.636 3.636h24.727c2.006 0 3.636-1.631 3.636-3.636s-1.631-3.636-3.636-3.636zM28.364 18.182h-24.727c-1.203 0-2.182-0.979-2.182-2.182s0.979-2.182 2.182-2.182h24.727c1.203 0 2.182 0.979 2.182 2.182s-0.979 2.182-2.182 2.182z"></path>
<path d="M28.364 24.727h-24.727c-2.006 0-3.636 1.631-3.636 3.636s1.631 3.636 3.636 3.636h24.727c2.006 0 3.636-1.631 3.636-3.636s-1.631-3.636-3.636-3.636zM28.364 30.545h-24.727c-1.203 0-2.182-0.979-2.182-2.182s0.979-2.182 2.182-2.182h24.727c1.203 0 2.182 0.979 2.182 2.182s-0.979 2.182-2.182 2.182z"></path>
</symbol>
<symbol id="web" viewBox="0 0 38 32">
<title>web</title>
<path fill="#fed136" style="fill: var(--color1, #fed136)" d="M6.406-0.006v0c-2.121 0-3.841 1.72-3.841 3.841v16.649c0.004 2.118 1.722 3.834 3.841 3.835h25.608c2.119-0.001 3.837-1.717 3.841-3.835v-16.649c0-2.121-1.72-3.841-3.841-3.841h-25.608zM2.565 21.76h3.841v2.56h-3.841v-2.56zM32.014 21.76h3.841v2.56h-3.841v-2.56zM6.406 3.835h25.608v23.044h-25.608v-23.044zM2.565 26.88h-0c-1.413 0.002-2.558 1.147-2.56 2.56 0 1.418 2.427 2.56 3.841 2.56h30.729c1.414 0 3.842-1.142 3.842-2.56v-0c-0.002-1.413-1.148-2.558-2.561-2.56h-33.291zM15.369 29.44h7.682c0.132-0.099 0.299-0.159 0.479-0.159 0.443 0 0.801 0.359 0.801 0.801s-0.359 0.801-0.801 0.801c-0.181 0-0.347-0.060-0.481-0.16l0.002 0.001h-7.682c-0.132 0.099-0.299 0.159-0.479 0.159-0.443 0-0.801-0.359-0.801-0.801s0.359-0.801 0.801-0.801c0.181 0 0.347 0.060 0.481 0.16l-0.002-0.001zM10.613 15.016l0-0c-0.232 0.233-0.376 0.555-0.376 0.91 0 0.354 0.143 0.674 0.373 0.907l4.506 4.521c0.229 0.233 0.548 0.378 0.901 0.378s0.672-0.145 0.901-0.378l1.802-1.808c0.231-0.232 0.373-0.551 0.373-0.904s-0.143-0.672-0.373-0.904l-4.506-4.529c-0.23-0.231-0.549-0.375-0.901-0.375s-0.671 0.143-0.901 0.375l-1.803 1.808zM25.997 7.929l1.808 1.808c0.23 0.232 0.372 0.552 0.372 0.904s-0.142 0.672-0.372 0.904l0-0-9.915 9.962c-0.232 0.231-0.551 0.374-0.904 0.374s-0.672-0.143-0.904-0.374l0 0-1.803-1.818c-0.231-0.232-0.373-0.551-0.373-0.904s0.143-0.672 0.373-0.904l-0 0 9.915-9.958c0.23-0.231 0.548-0.374 0.9-0.374 0.354 0 0.675 0.145 0.905 0.379l0 0z"></path>
</symbol>
</defs>
</svg>
